<svg width="857" height="160" viewBox="0 0 857 160" fill="none" xmlns="http://www.w3.org/2000/svg">
<path d="M0 60L857 61" stroke="white" stroke-width="6"/>
<path d="M536.58 140.818H541.321L546.328 153.034H546.541L551.548 140.818H556.289V159H552.56V147.166H552.409L547.704 158.911H545.165L540.46 147.121H540.309V159H536.58V140.818ZM565.6 159.266C564.197 159.266 562.99 158.982 561.978 158.414C560.971 157.84 560.196 157.029 559.652 155.982C559.107 154.928 558.835 153.682 558.835 152.244C558.835 150.841 559.107 149.61 559.652 148.551C560.196 147.491 560.963 146.666 561.951 146.074C562.945 145.482 564.111 145.186 565.449 145.186C566.348 145.186 567.186 145.331 567.961 145.621C568.742 145.905 569.423 146.334 570.003 146.908C570.589 147.482 571.045 148.205 571.37 149.075C571.696 149.939 571.859 150.951 571.859 152.111V153.15H560.344V150.806H568.299C568.299 150.261 568.18 149.779 567.943 149.359C567.707 148.938 567.378 148.61 566.958 148.373C566.544 148.131 566.061 148.009 565.511 148.009C564.937 148.009 564.428 148.142 563.984 148.409C563.546 148.669 563.203 149.021 562.954 149.465C562.706 149.903 562.578 150.391 562.572 150.93V153.158C562.572 153.833 562.697 154.416 562.945 154.907C563.2 155.399 563.558 155.777 564.019 156.044C564.481 156.31 565.029 156.443 565.662 156.443C566.082 156.443 566.467 156.384 566.816 156.266C567.165 156.147 567.464 155.97 567.713 155.733C567.961 155.496 568.151 155.206 568.281 154.863L571.779 155.094C571.601 155.934 571.237 156.668 570.687 157.295C570.142 157.917 569.438 158.402 568.574 158.751C567.716 159.095 566.724 159.266 565.6 159.266ZM574.327 159V145.364H577.931V147.77H578.091C578.375 146.971 578.848 146.34 579.511 145.879C580.174 145.417 580.967 145.186 581.891 145.186C582.826 145.186 583.622 145.42 584.279 145.887C584.936 146.349 585.374 146.976 585.593 147.77H585.735C586.013 146.988 586.516 146.364 587.244 145.896C587.978 145.423 588.845 145.186 589.845 145.186C591.118 145.186 592.15 145.592 592.943 146.402C593.742 147.207 594.142 148.35 594.142 149.829V159H590.369V150.575C590.369 149.817 590.168 149.249 589.765 148.87C589.363 148.492 588.86 148.302 588.256 148.302C587.569 148.302 587.034 148.521 586.649 148.959C586.264 149.391 586.072 149.962 586.072 150.673V159H582.405V150.495C582.405 149.826 582.213 149.294 581.828 148.897C581.45 148.5 580.949 148.302 580.328 148.302C579.908 148.302 579.529 148.409 579.192 148.622C578.86 148.829 578.597 149.122 578.402 149.501C578.206 149.874 578.109 150.312 578.109 150.815V159H574.327ZM597.2 159V140.818H600.982V147.654H601.098C601.263 147.287 601.503 146.914 601.817 146.536C602.136 146.151 602.551 145.831 603.06 145.577C603.575 145.316 604.214 145.186 604.977 145.186C605.972 145.186 606.889 145.446 607.729 145.967C608.57 146.482 609.242 147.261 609.745 148.302C610.248 149.338 610.499 150.637 610.499 152.2C610.499 153.721 610.254 155.005 609.763 156.053C609.277 157.094 608.614 157.884 607.774 158.423C606.939 158.956 606.004 159.222 604.968 159.222C604.235 159.222 603.61 159.101 603.095 158.858C602.586 158.615 602.169 158.31 601.843 157.944C601.518 157.571 601.269 157.195 601.098 156.816H600.929V159H597.2ZM600.902 152.182C600.902 152.993 601.015 153.7 601.24 154.304C601.465 154.907 601.79 155.378 602.216 155.715C602.642 156.047 603.16 156.212 603.77 156.212C604.386 156.212 604.906 156.044 605.332 155.706C605.759 155.363 606.081 154.89 606.3 154.286C606.525 153.676 606.638 152.975 606.638 152.182C606.638 151.395 606.528 150.702 606.309 150.104C606.09 149.507 605.767 149.039 605.341 148.702C604.915 148.364 604.391 148.196 603.77 148.196C603.154 148.196 602.634 148.358 602.207 148.684C601.787 149.009 601.465 149.471 601.24 150.069C601.015 150.667 600.902 151.371 600.902 152.182ZM619.237 159.266C617.835 159.266 616.627 158.982 615.615 158.414C614.609 157.84 613.834 157.029 613.289 155.982C612.745 154.928 612.472 153.682 612.472 152.244C612.472 150.841 612.745 149.61 613.289 148.551C613.834 147.491 614.6 146.666 615.589 146.074C616.583 145.482 617.749 145.186 619.086 145.186C619.986 145.186 620.824 145.331 621.599 145.621C622.38 145.905 623.061 146.334 623.641 146.908C624.227 147.482 624.682 148.205 625.008 149.075C625.334 149.939 625.496 150.951 625.496 152.111V153.15H613.982V150.806H621.936C621.936 150.261 621.818 149.779 621.581 149.359C621.344 148.938 621.016 148.61 620.596 148.373C620.181 148.131 619.699 148.009 619.149 148.009C618.575 148.009 618.066 148.142 617.622 148.409C617.184 148.669 616.84 149.021 616.592 149.465C616.343 149.903 616.216 150.391 616.21 150.93V153.158C616.21 153.833 616.334 154.416 616.583 154.907C616.837 155.399 617.195 155.777 617.657 156.044C618.119 156.31 618.666 156.443 619.3 156.443C619.72 156.443 620.104 156.384 620.454 156.266C620.803 156.147 621.102 155.97 621.35 155.733C621.599 155.496 621.788 155.206 621.919 154.863L625.416 155.094C625.239 155.934 624.875 156.668 624.324 157.295C623.78 157.917 623.076 158.402 622.211 158.751C621.353 159.095 620.362 159.266 619.237 159.266ZM627.964 159V145.364H631.631V147.743H631.773C632.021 146.897 632.439 146.257 633.025 145.825C633.611 145.387 634.285 145.168 635.049 145.168C635.238 145.168 635.442 145.18 635.661 145.204C635.88 145.228 636.073 145.26 636.238 145.301V148.657C636.061 148.604 635.815 148.557 635.502 148.515C635.188 148.474 634.901 148.453 634.64 148.453C634.084 148.453 633.587 148.574 633.149 148.817C632.717 149.054 632.374 149.385 632.119 149.811C631.871 150.238 631.746 150.729 631.746 151.285V159H627.964Z" fill="white"/>
<path d="M243.714 159H239.595L245.871 140.818H250.825L257.093 159H252.974L248.419 144.973H248.277L243.714 159ZM243.457 151.853H253.187V154.854H243.457V151.853ZM263.6 159.222C262.565 159.222 261.627 158.956 260.786 158.423C259.952 157.884 259.289 157.094 258.798 156.053C258.312 155.005 258.07 153.721 258.07 152.2C258.07 150.637 258.321 149.338 258.824 148.302C259.327 147.261 259.996 146.482 260.831 145.967C261.671 145.446 262.591 145.186 263.592 145.186C264.355 145.186 264.991 145.316 265.5 145.577C266.015 145.831 266.43 146.151 266.743 146.536C267.063 146.914 267.306 147.287 267.471 147.654H267.587V140.818H271.36V159H267.631V156.816H267.471C267.294 157.195 267.042 157.571 266.717 157.944C266.397 158.31 265.98 158.615 265.465 158.858C264.956 159.101 264.334 159.222 263.6 159.222ZM264.799 156.212C265.409 156.212 265.924 156.047 266.344 155.715C266.77 155.378 267.095 154.907 267.32 154.304C267.551 153.7 267.667 152.993 267.667 152.182C267.667 151.371 267.554 150.667 267.329 150.069C267.104 149.471 266.779 149.009 266.353 148.684C265.926 148.358 265.409 148.196 264.799 148.196C264.178 148.196 263.654 148.364 263.228 148.702C262.801 149.039 262.479 149.507 262.26 150.104C262.041 150.702 261.931 151.395 261.931 152.182C261.931 152.975 262.041 153.676 262.26 154.286C262.485 154.89 262.807 155.363 263.228 155.706C263.654 156.044 264.178 156.212 264.799 156.212ZM274.469 159V145.364H278.074V147.77H278.233C278.517 146.971 278.991 146.34 279.654 145.879C280.317 145.417 281.11 145.186 282.033 145.186C282.968 145.186 283.764 145.42 284.421 145.887C285.078 146.349 285.516 146.976 285.735 147.77H285.877C286.155 146.988 286.658 146.364 287.386 145.896C288.12 145.423 288.987 145.186 289.988 145.186C291.26 145.186 292.293 145.592 293.086 146.402C293.885 147.207 294.285 148.35 294.285 149.829V159H290.511V150.575C290.511 149.817 290.31 149.249 289.908 148.87C289.505 148.492 289.002 148.302 288.399 148.302C287.712 148.302 287.176 148.521 286.792 148.959C286.407 149.391 286.215 149.962 286.215 150.673V159H282.548V150.495C282.548 149.826 282.356 149.294 281.971 148.897C281.592 148.5 281.092 148.302 280.471 148.302C280.05 148.302 279.672 148.409 279.334 148.622C279.003 148.829 278.739 149.122 278.544 149.501C278.349 149.874 278.251 150.312 278.251 150.815V159H274.469ZM297.272 159V145.364H301.054V159H297.272ZM299.172 143.606C298.61 143.606 298.127 143.419 297.725 143.047C297.328 142.668 297.13 142.215 297.13 141.688C297.13 141.167 297.328 140.721 297.725 140.348C298.127 139.969 298.61 139.779 299.172 139.779C299.734 139.779 300.213 139.969 300.61 140.348C301.012 140.721 301.214 141.167 301.214 141.688C301.214 142.215 301.012 142.668 300.61 143.047C300.213 143.419 299.734 143.606 299.172 143.606ZM307.865 151.116V159H304.083V145.364H307.688V147.77H307.848C308.15 146.976 308.656 146.349 309.366 145.887C310.076 145.42 310.937 145.186 311.949 145.186C312.896 145.186 313.722 145.393 314.426 145.808C315.13 146.222 315.678 146.814 316.069 147.583C316.459 148.347 316.654 149.258 316.654 150.317V159H312.873V150.992C312.878 150.158 312.665 149.507 312.233 149.039C311.801 148.566 311.206 148.329 310.449 148.329C309.94 148.329 309.49 148.438 309.099 148.657C308.715 148.876 308.413 149.196 308.194 149.616C307.981 150.03 307.871 150.531 307.865 151.116Z" fill="white"/>
<ellipse cx="280" cy="59" rx="61" ry="58" fill="white"/>
<mask id="mask0_326_1463" style="mask-type:alpha" maskUnits="userSpaceOnUse" x="243" y="26" width="70" height="66">
<rect x="243" y="26" width="70" height="66" fill="#D9D9D9"/>
</mask>
<g mask="url(#mask0_326_1463)">
<path d="M292.583 72.7502C293.798 72.7502 294.831 72.3492 295.682 71.5471C296.533 70.745 296.958 69.7711 296.958 68.6252C296.958 67.4794 296.533 66.5055 295.682 65.7034C294.831 64.9013 293.798 64.5002 292.583 64.5002C291.368 64.5002 290.335 64.9013 289.484 65.7034C288.633 66.5055 288.208 67.4794 288.208 68.6252C288.208 69.7711 288.633 70.745 289.484 71.5471C290.335 72.3492 291.368 72.7502 292.583 72.7502ZM292.583 81.0002C294.09 81.0002 295.475 80.668 296.739 80.0034C298.003 79.3388 299.024 78.4565 299.802 77.3565C298.732 76.7607 297.59 76.3023 296.375 75.9815C295.159 75.6607 293.895 75.5002 292.583 75.5002C291.27 75.5002 290.007 75.6607 288.791 75.9815C287.576 76.3023 286.434 76.7607 285.364 77.3565C286.142 78.4565 287.163 79.3388 288.427 80.0034C289.691 80.668 291.076 81.0002 292.583 81.0002ZM278 86.5002C271.243 84.8961 265.665 81.2409 261.265 75.5346C256.866 69.8284 254.666 63.4919 254.666 56.5252V39.7502L278 31.5002L301.333 39.7502V55.3565C300.409 54.9898 299.461 54.6575 298.489 54.3596C297.517 54.0617 296.52 53.844 295.5 53.7065V43.6002L278 37.4127L260.5 43.6002V56.5252C260.5 58.6794 260.803 60.8336 261.411 62.9877C262.019 65.1419 262.869 67.193 263.963 69.1409C265.057 71.0888 266.382 72.8877 267.937 74.5377C269.493 76.1877 271.218 77.5627 273.114 78.6627C273.649 80.1294 274.354 81.5273 275.229 82.8565C276.104 84.1857 277.1 85.3773 278.218 86.4315C278.17 86.4315 278.133 86.443 278.109 86.4659C278.085 86.4888 278.048 86.5002 278 86.5002ZM292.583 86.5002C288.548 86.5002 285.109 85.1596 282.265 82.4784C279.421 79.7971 278 76.5544 278 72.7502C278 68.9461 279.421 65.7034 282.265 63.0221C285.109 60.3409 288.548 59.0002 292.583 59.0002C296.618 59.0002 300.057 60.3409 302.901 63.0221C305.744 65.7034 307.166 68.9461 307.166 72.7502C307.166 76.5544 305.744 79.7971 302.901 82.4784C300.057 85.1596 296.618 86.5002 292.583 86.5002Z" fill="#1C1B1F"/>
</g>
<ellipse cx="582.5" cy="60" rx="61.5" ry="60" fill="white"/>
<mask id="mask1_326_1463" style="mask-type:alpha" maskUnits="userSpaceOnUse" x="545" y="25" width="72" height="71">
<rect x="545" y="25" width="72" height="71" fill="#D9D9D9"/>
</mask>
<g mask="url(#mask1_326_1463)">
<path d="M562.55 75.5873C565.1 73.6644 567.95 72.1483 571.1 71.0389C574.25 69.9295 577.55 69.3748 581 69.3748C584.45 69.3748 587.75 69.9295 590.9 71.0389C594.05 72.1483 596.9 73.6644 599.45 75.5873C601.2 73.5658 602.563 71.2731 603.538 68.7092C604.513 66.1453 605 63.4089 605 60.4998C605 53.9422 602.663 48.3583 597.988 43.7483C593.313 39.1382 587.65 36.8332 581 36.8332C574.35 36.8332 568.688 39.1382 564.013 43.7483C559.338 48.3583 557 53.9422 557 60.4998C557 63.4089 557.488 66.1453 558.463 68.7092C559.438 71.2731 560.8 73.5658 562.55 75.5873ZM581 63.4582C578.05 63.4582 575.563 62.4597 573.538 60.4629C571.513 58.466 570.5 56.013 570.5 53.104C570.5 50.195 571.513 47.742 573.538 45.7452C575.563 43.7483 578.05 42.7498 581 42.7498C583.95 42.7498 586.438 43.7483 588.463 45.7452C590.488 47.742 591.5 50.195 591.5 53.104C591.5 56.013 590.488 58.466 588.463 60.4629C586.438 62.4597 583.95 63.4582 581 63.4582ZM581 90.0832C576.85 90.0832 572.95 89.3066 569.3 87.7535C565.65 86.2004 562.475 84.0926 559.775 81.43C557.075 78.7676 554.938 75.6366 553.363 72.0373C551.788 68.438 551 64.5922 551 60.4998C551 56.4075 551.788 52.5616 553.363 48.9623C554.938 45.363 557.075 42.2321 559.775 39.5696C562.475 36.9071 565.65 34.7993 569.3 33.2462C572.95 31.6931 576.85 30.9165 581 30.9165C585.15 30.9165 589.05 31.6931 592.7 33.2462C596.35 34.7993 599.525 36.9071 602.225 39.5696C604.925 42.2321 607.063 45.363 608.638 48.9623C610.213 52.5616 611 56.4075 611 60.4998C611 64.5922 610.213 68.438 608.638 72.0373C607.063 75.6366 604.925 78.7676 602.225 81.43C599.525 84.0926 596.35 86.2004 592.7 87.7535C589.05 89.3066 585.15 90.0832 581 90.0832ZM581 84.1665C583.65 84.1665 586.15 83.7844 588.5 83.0202C590.85 82.2559 593 81.1589 594.95 79.729C593 78.2991 590.85 77.2021 588.5 76.4379C586.15 75.6736 583.65 75.2915 581 75.2915C578.35 75.2915 575.85 75.6736 573.5 76.4379C571.15 77.2021 569 78.2991 567.05 79.729C569 81.1589 571.15 82.2559 573.5 83.0202C575.85 83.7844 578.35 84.1665 581 84.1665ZM581 57.5415C582.3 57.5415 583.375 57.1224 584.225 56.2842C585.075 55.446 585.5 54.386 585.5 53.104C585.5 51.8221 585.075 50.762 584.225 49.9238C583.375 49.0856 582.3 48.6665 581 48.6665C579.7 48.6665 578.625 49.0856 577.775 49.9238C576.925 50.762 576.5 51.8221 576.5 53.104C576.5 54.386 576.925 55.446 577.775 56.2842C578.625 57.1224 579.7 57.5415 581 57.5415Z" fill="#1C1B1F"/>
</g>
</svg>
